#!OML:ASF H:\Terrain\Patient Classification 1\PLAYGROUND\JustinFriday\JustinFriday.ASF
:FULLY-SPECIFIED
:DEGREES
1021
root -22.0293 25.9143 -7.11199 225.83 77.4063 -139.932
lowerback 24.9481 -4.11165 2.3457
upperback 7.08667 -3.88973 2.40203
thorax -5.98255 -1.63091 2.39507
lowerneck -16.5151 -4.74043 -10.8274
upperneck -5.76498 -4.06309 12.9417
head 1.46477 -1.35102 5.50882
rclavicle -1.31198e-014 3.4191e-014
rhumerus 41.2341 -16.4559 -44.5919
rradius 105.126
rwrist -5.88024
rhand -34.6285 -25.2135
rfingers 7.12502
rthumb -7.78623 -55.0501
lclavicle -1.31198e-014 3.4191e-014
lhumerus 36.6288 -12.5167 64.0674
lradius 43.8974
lwrist -9.80282
lhand -14.1804 -6.88933
lfingers 7.12502
lthumb 11.9551 22.7493
rfemur -32.4581 4.74335 32.9452
rtibia 47.7134
rfoot -21.9745 -1.73958
rtoes 25.5277
lfemur -58.7566 21.7543 -9.63381
ltibia 103.401
lfoot -22.3549 -7.01521
ltoes 0.0977647
1022
root -22.0066 25.9856 -7.13714 227.507 77.4596 -138.129
lowerback 24.9147 -4.31403 2.78961
upperback 7.2172 -4.02704 2.48208
thorax -5.84321 -1.6936 2.26378
lowerneck -14.1003 -4.03334 -7.06214
upperneck -8.66696 -3.73179 8.62367
head -0.0208828 -1.409 3.94528
rclavicle 1.66979e-014 2.94201e-014
rhumerus 42.9052 -16.5135 -44.3667
rradius 104.295
rwrist -5.65884
rhand -34.791 -25.8749
rfingers 7.12502
rthumb -7.94303 -55.7057
lclavicle 1.66979e-014 2.94201e-014
lhumerus 36.5201 -11.2529 65.2638
lradius 42.9793
lwrist -11.2062
lhand -13.3633 -7.77163
lfingers 7.12502
lthumb 12.7429 21.8195
rfemur -31.5227 5.19515 32.9086
rtibia 46.5358
rfoot -21.5664 -1.2643
rtoes 24.5226
lfemur -60.0866 22.6886 -9.55451
ltibia 104.983
lfoot -23.1097 -8.43579
ltoes 0.16957
1023
root -21.9825 26.0366 -7.13994 228.775 76.8683 -137.131
lowerback 24.6572 -4.81847 2.92258
upperback 7.29281 -4.67219 2.36985
thorax -5.64105 -2.00822 2.23439
lowerneck -14.5859 -3.12374 -4.75998
upperneck -7.54331 -2.93473 7.36103
head 0.287 -1.08639 3.09146
rclavicle -1.78906e-014 -1.27222e-014
rhumerus 44.5647 -16.589 -45.283
rradius 103.626
rwrist -5.61729
rhand -34.6301 -26.2943
rfingers 7.12502
rthumb -7.78772 -56.1309
lclavicle -1.78906e-014 -1.27222e-014
lhumerus 36.2849 -10.5065 62.8895
lradius 42.9069
lwrist -9.87014
lhand -11.9872 -8.65844
lfingers 7.12502
lthumb 14.0693 20.8453
rfemur -31.1515 4.82389 33.5653
rtibia 45.3109
rfoot -20.9103 -2.23453
rtoes 20.0845
lfemur -62.3768 22.9663 -9.22377
ltibia 106.566
lfoot -23.6115 -9.9759
ltoes 4.28945
1024
root -21.9701 26.0933 -7.14968 226.932 76.8094 -138.668
lowerback 25.0294 -4.62183 2.89475
upperback 7.44243 -4.3682 2.4944
thorax -5.65248 -1.84781 2.31479
lowerneck -14.3684 -3.31689 -4.72734
upperneck -7.15579 -3.25909 6.7184
head 0.380243 -1.27151 2.84598
rclavicle 2.50469e-014 1.51076e-014
rhumerus 45.1752 -17.9055 -44.2643
rradius 102.674
rwrist -5.49352
rhand -35.672 -27.5422
rfingers 7.12502
rthumb -8.79332 -57.339
lclavicle 2.50469e-014 1.51076e-014
lhumerus 37.0244 -11.8698 62.0974
lradius 43.0639
lwrist -7.13608
lhand -11.0013 -8.15942
lfingers 7.12502
lthumb 15.0192 21.2759
rfemur -30.1966 4.21794 33.3908
rtibia 44.1315
rfoot -20.2245 -2.8347
rtoes 17.455
lfemur -63.7239 22.6513 -9.691
ltibia 107.775
lfoot -24.5336 -10.5465
ltoes -0.700242
1025
root -21.9729 26.1441 -7.1624 225.202 76.7134 -140.118
lowerback 25.5952 -4.38308 2.71144
upperback 7.48135 -4.01204 2.89786
thorax -5.85051 -1.66316 2.78881
lowerneck -13.5629 -3.45797 -6.23834
upperneck -7.13824 -3.29972 6.61714
head 0.285061 -1.28311 3.09872
rclavicle 7.95139e-016 -2.38542e-015
rhumerus 45.6976 -19.178 -42.7484
rradius 101.909
rwrist -5.70634
rhand -36.2527 -28.6733
rfingers 7.12502
rthumb -9.35361 -58.4458
lclavicle 7.95139e-016 -2.38542e-015
lhumerus 37.6241 -12.178 63.3725
lradius 42.413
lwrist -6.87218
lhand -9.40869 -9.22642
lfingers 7.12502
lthumb 16.553 20.0876
rfemur -29.3618 3.85176 33.169
rtibia 43.0462
rfoot -19.6121 -3.04811
rtoes 16.2419
lfemur -65.3669 22.362 -10.1463
ltibia 108.837
lfoot -24.4749 -12.2219
ltoes 1.30691
1026
root -21.9721 26.1917 -7.18045 224.83 76.8533 -140.573
lowerback 25.525 -4.06562 3.41471
upperback 7.55984 -3.44639 2.66907
thorax -5.80029 -1.38436 1.96267
lowerneck -14.5713 -3.97579 -4.26505
upperneck -5.32269 -4.3494 5.47902
head 1.0259 -1.86836 2.27267
rclavicle -3.57812e-014 6.32135e-014
rhumerus 46.1067 -20.6392 -40.9676
rradius 100.194
rwrist -5.8085
rhand -36.4632 -30.3425
rfingers 7.12502
rthumb -9.55674 -60.1057
lclavicle -3.57812e-014 6.32135e-014
lhumerus 38.6675 -13.8144 62.7212
lradius 42.4854
lwrist -5.43382
lhand -8.34189 -9.19187
lfingers 7.12502
lthumb 17.5799 20.0333
rfemur -28.9509 3.89025 32.932
rtibia 42.1157
rfoot -19.0094 -3.47254
rtoes 13.6148
lfemur -67.3927 22.5816 -10.6828
ltibia 109.665
lfoot -23.9198 -14.4783
ltoes 4.92388
1027
root -21.9587 26.2478 -7.21926 224.927 77.4254 -140.417
lowerback 25.6524 -3.90313 2.84949
upperback 7.66984 -3.32866 3.02913
thorax -5.68715 -1.32372 2.64444
lowerneck -18.7002 -4.2643 -13.1613
upperneck 1.24993 -3.38136 11.7626
head 3.80511 -1.06502 5.54673
rclavicle -2.5842e-014 7.59357e-014
rhumerus 48.0811 -20.8228 -39.3302
rradius 98.6363
rwrist -6.29325
rhand -36.8216 -33.0612
rfingers 7.12502
rthumb -9.90255 -62.8083
lclavicle -2.5842e-014 7.59357e-014
lhumerus 38.2683 -13.8244 61.9389
lradius 43.3043
lwrist -3.34001
lhand -7.21502 -8.847
lfingers 7.12502
lthumb 18.664 20.2776
rfemur -28.391 4.27716 32.306
rtibia 41.2724
rfoot -18.6966 -2.9476
rtoes 14.4231
lfemur -68.571 23.0321 -11.6594
ltibia 110.082
lfoot -24.6798 -14.8615
ltoes 7.956
1028
root -21.9381 26.2934 -7.18889 225.535 77.0155 -139.573
lowerback 26.1226 -3.82458 2.22369
upperback 7.70443 -3.26344 3.81345
thorax -5.79416 -1.28468 3.86999
lowerneck -19.9182 -4.164 -14.725
upperneck 3.80433 -2.96537 12.2301
head 4.75584 -0.85611 6.01859
rclavicle -2.5842e-015 -3.06128e-014
rhumerus 49.7973 -21.0046 -37.6794
rradius 97.2228
rwrist -7.63533
rhand -37.2989 -34.9632
rfingers 7.12502
rthumb -10.363 -64.6879
lclavicle -2.5842e-015 -3.06128e-014
lhumerus 37.9735 -14.036 60.895
lradius 43.7773
lwrist -1.05056
lhand -6.78519 -7.80695
lfingers 7.12502
lthumb 19.0774 21.2774
rfemur -27.6674 4.76497 32.62
rtibia 40.4332
rfoot -18.607 -2.28081
rtoes 19.1096
lfemur -69.6078 23.088 -11.4936
ltibia 110.36
lfoot -25.322 -15.3333
ltoes 5.65719
1029
root -21.9287 26.3504 -7.22176 223.821 77.495 -141.335
lowerback 26.4202 -3.34638 2.08867
upperback 7.58628 -2.69928 3.54307
thorax -6.10718 -1.01108 3.49793
lowerneck -17.8569 -3.95634 -11.2963
upperneck 2.40529 -3.40301 9.18057
head 3.92713 -1.25133 4.4053
rclavicle -1.19271e-014 1.31198e-014
rhumerus 49.2601 -22.4052 -35.624
rradius 96.0734
rwrist -8.56705
rhand -37.8294 -37.4088
rfingers 7.12502
rthumb -10.8748 -67.1072
lclavicle -1.19271e-014 1.31198e-014
lhumerus 39.0972 -15.6426 59.9676
lradius 43.4243
lwrist 0.234813
lhand -6.51241 -7.07114
lfingers 7.12502
lthumb 19.3397 21.9872
rfemur -27.1822 4.54286 31.9535
rtibia 39.5053
rfoot -18.1222 -2.63565
rtoes 16.4075
lfemur -70.7697 22.5092 -12.6398
ltibia 110.41
lfoot -25.4893 -15.4906
ltoes 1.47042
1030
root -21.92 26.3926 -7.23981 223.841 76.8684 -141.222
lowerback 26.5757 -3.50252 2.73143
upperback 7.69394 -2.69378 3.63546
thorax -6.08975 -0.998662 3.23472
lowerneck -14.8956 -3.38103 -6.53134
upperneck -1.22312 -3.42065 5.11816
head 2.46865 -1.45359 2.63916
rclavicle -2.92213e-014 2.06736e-014
rhumerus 49.6487 -23.4678 -34.2824
rradius 94.9773
rwrist -8.59586
rhand -38.3485 -39.898
rfingers 7.12502
rthumb -11.3754 -69.5694
lclavicle -2.92213e-014 2.06736e-014
lhumerus 39.6166 -15.3893 59.6677
lradius 43.0069
lwrist 0.565984
lhand -5.02642 -7.69035
lfingers 7.12502
lthumb 20.768 21.2183
rfemur -26.614 4.34413 32.2724
rtibia 38.6583
rfoot -17.6957 -2.40907
rtoes 17.5249
lfemur -72.2241 21.9386 -12.4615
ltibia 110.445
lfoot -25.9344 -16.3527
ltoes 4.59918
1031
root -21.8818 26.4394 -7.29254 227.328 75.8665 -138.089
lowerback 25.6749 -3.88185 5.49524
upperback 7.74457 -2.64508 2.6858
thorax -5.76163 -0.97595 0.561588
lowerneck -14.2238 -3.0951 -1.76601
upperneck -0.843365 -3.82636 3.47802
head 2.30626 -1.72871 1.19483
rclavicle 1.66979e-014 -2.14687e-014
rhumerus 48.767 -25.0604 -34.0878
rradius 93.744
rwrist -9.06037
rhand -39.704 -39.4327
rfingers 7.12502
rthumb -12.6825 -69.0276
lclavicle 1.66979e-014 -2.14687e-014
lhumerus 40.6703 -16.3245 58.1164
lradius 42.4743
lwrist -0.188976
lhand -3.07583 -9.12561
lfingers 7.12502
lthumb 22.6412 19.5664
rfemur -26.3182 3.86834 33.3604
rtibia 37.774
rfoot -17.4321 -1.51216
rtoes 18.7888
lfemur -73.7376 21.8156 -11.738
ltibia 110.43
lfoot -25.102 -18.8862
ltoes 3.79423
1032
root -21.8792 26.4804 -7.30086 224.722 75.9319 -140.877
lowerback 25.6185 -3.8359 4.89523
upperback 7.87597 -2.65774 3.37461
thorax -5.53004 -0.971351 1.65191
lowerneck -15.4916 -3.23401 -5.83054
upperneck 1.52576 -3.43773 5.16274
head 3.11233 -1.47041 2.27614
rclavicle -3.22031e-014 5.24792e-014
rhumerus 50.5952 -25.5977 -31.963
rradius 92.4291
rwrist -9.42118
rhand -42.8013 -32.68
rfingers 7.12502
rthumb -15.667 -62.0657
lclavicle -3.22031e-014 5.24792e-014
lhumerus 40.8826 -15.9553 58.9346
lradius 42.5193
lwrist 1.12285
lhand -3.26443 -8.70851
lfingers 7.12502
lthumb 22.4602 20.0055
rfemur -26.1084 3.45927 32.7234
rtibia 36.9858
rfoot -16.9745 -1.42699
rtoes 18.4655
lfemur -74.9794 20.9117 -12.8734
ltibia 109.954
lfoot -26.0287 -18.2548
ltoes 3.53888
